<svg width="2314" height="2350" viewBox="0 0 2314 2350" fill="none" xmlns="http://www.w3.org/2000/svg">
<g filter="url(#filter0_f_705_436)">
<ellipse cx="1245.88" cy="940.204" rx="556.425" ry="570.727" fill="#FF7CAB" fill-opacity="0.6"/>
</g>
<g filter="url(#filter1_f_705_436)">
<ellipse cx="1469.9" cy="1392.45" rx="538.719" ry="347.089" transform="rotate(-38.3356 1469.9 1392.45)" fill="url(#paint0_linear_705_436)" fill-opacity="0.6"/>
</g>
<g filter="url(#filter2_f_705_436)">
<path d="M1541.77 1429.95C1541.77 1699.88 1291.77 1814.61 1026.72 1814.61C761.668 1814.61 535.422 1578.64 535.422 1308.7C535.422 1038.76 694.875 741.414 959.927 741.414C1108.46 741.414 998.554 1143.09 1086.59 1251.02C1155.64 1335.68 1541.77 1311.28 1541.77 1429.95Z" fill="#EA4BC7"/>
</g>
<defs>
<filter id="filter0_f_705_436" x="320.347" y="0.372345" width="1851.06" height="1879.66" filterUnits="userSpaceOnUse" color-interpolation-filters="sRGB">
<feFlood flood-opacity="0" result="BackgroundImageFix"/>
<feBlend mode="normal" in="SourceGraphic" in2="BackgroundImageFix" result="shape"/>
<feGaussianBlur stdDeviation="184.552" result="effect1_foregroundBlur_705_436"/>
</filter>
<filter id="filter1_f_705_436" x="626.449" y="592.31" width="1686.91" height="1600.27" filterUnits="userSpaceOnUse" color-interpolation-filters="sRGB">
<feFlood flood-opacity="0" result="BackgroundImageFix"/>
<feBlend mode="normal" in="SourceGraphic" in2="BackgroundImageFix" result="shape"/>
<feGaussianBlur stdDeviation="184.552" result="effect1_foregroundBlur_705_436"/>
</filter>
<filter id="filter2_f_705_436" x="0.220764" y="206.213" width="2076.75" height="2143.6" filterUnits="userSpaceOnUse" color-interpolation-filters="sRGB">
<feFlood flood-opacity="0" result="BackgroundImageFix"/>
<feBlend mode="normal" in="SourceGraphic" in2="BackgroundImageFix" result="shape"/>
<feGaussianBlur stdDeviation="267.601" result="effect1_foregroundBlur_705_436"/>
</filter>
<linearGradient id="paint0_linear_705_436" x1="1479.19" y1="1162.58" x2="1473.69" y2="1739.57" gradientUnits="userSpaceOnUse">
<stop stop-color="#FF6AA0" stop-opacity="0"/>
<stop offset="0.606955" stop-color="#FF6AA0"/>
</linearGradient>
</defs>
</svg>
